<svg width="90" height="24" viewBox="0 0 90 24" fill="none" xmlns="http://www.w3.org/2000/svg">
<rect width="18" height="24" rx="3" fill="white"/>
<rect x="0.5" y="0.5" width="17" height="23" rx="2.5" stroke="black" stroke-opacity="0.15"/>
<mask id="mask0" style="mask-type:alpha" maskUnits="userSpaceOnUse" x="0" y="0" width="18" height="24">
<rect width="18" height="24" rx="3" fill="white"/>
</mask>
<g mask="url(#mask0)">
<line y1="23" x2="18" y2="23" stroke="#878586" stroke-width="2"/>
</g>
<rect x="18" width="18" height="24" rx="3" fill="white"/>
<rect x="18.5" y="0.5" width="17" height="23" rx="2.5" stroke="black" stroke-opacity="0.15"/>
<mask id="mask1" style="mask-type:alpha" maskUnits="userSpaceOnUse" x="18" y="0" width="18" height="24">
<rect x="18" width="18" height="24" rx="3" fill="white"/>
</mask>
<g mask="url(#mask1)">
<line x1="18" y1="23" x2="36" y2="23" stroke="#3666B2" stroke-width="2"/>
</g>
<rect x="36.5" y="0.5" width="17" height="23" rx="2.5" stroke="black" stroke-opacity="0.15"/>
<rect x="54" width="18" height="24" rx="3" fill="white"/>
<rect x="54.5" y="0.5" width="17" height="23" rx="2.5" stroke="black" stroke-opacity="0.15"/>
<mask id="mask2" style="mask-type:alpha" maskUnits="userSpaceOnUse" x="54" y="0" width="18" height="24">
<rect x="54" width="18" height="24" rx="3" fill="white"/>
</mask>
<g mask="url(#mask2)">
<line x1="54" y1="23" x2="72" y2="23" stroke="#3666B2" stroke-width="2"/>
</g>
<rect x="72.5" y="0.5" width="17" height="23" rx="2.5" stroke="black" stroke-opacity="0.15"/>
<mask id="mask3" style="mask-type:alpha" maskUnits="userSpaceOnUse" x="72" y="0" width="18" height="24">
<rect x="72" width="18" height="24" rx="3" fill="white"/>
</mask>
<g mask="url(#mask3)">
<line x1="72" y1="23" x2="90" y2="23" stroke="#878586" stroke-width="2"/>
</g>
</svg>
